<?xml version="1.0" encoding="utf-8"?>
<!-- Generator: Adobe Illustrator 15.0.0, SVG Export Plug-In . SVG Version: 6.00 Build 0)  -->
<!DOCTYPE svg PUBLIC "-//W3C//DTD SVG 1.1//EN" "http://www.w3.org/Graphics/SVG/1.1/DTD/svg11.dtd">
<svg version="1.1" id="Layer_1" xmlns="http://www.w3.org/2000/svg" xmlns:xlink="http://www.w3.org/1999/xlink" x="0px" y="0px"
	 width="43px" height="38px" viewBox="0 0 43 38" enable-background="new 0 0 43 38" xml:space="preserve">
<path fill="#888888" d="M30.029,23.22c-0.334-0.313-0.783-0.513-1.285-0.513s-0.967,0.197-1.303,0.531l-1.274,1.277
	c-0.802,0.799-2.103,0.799-2.903,0l-3.64-3.639l-3.635-3.639c-0.801-0.802-0.801-2.104,0-2.904l1.274-1.273
	c0.335-0.338,0.53-0.803,0.53-1.305c0-0.504-0.194-0.949-0.512-1.284l-6.58-7.946c-0.345-0.411-0.867-0.68-1.443-0.68
	c-0.614,0-1.155,0.298-1.497,0.753L7.648,2.748C6.214,4.685,4.344,7.754,4.344,10.64c0,3.953,2.979,8.91,8.353,14.308l1.403,1.404
	c0.009,0.008,0.017,0.016,0.025,0.021l0.023,0.027c5.398,5.372,11.76,9.754,15.713,9.754c2.885,0,5.955-1.869,7.892-3.304
	l0.149-0.112c0.455-0.345,0.754-0.884,0.754-1.498c0-0.576-0.271-1.097-0.681-1.443L30.029,23.22z"/>
</svg>
