<?xml version="1.0" encoding="utf-8"?>
<!-- Generator: Adobe Illustrator 15.0.0, SVG Export Plug-In . SVG Version: 6.00 Build 0)  -->
<!DOCTYPE svg PUBLIC "-//W3C//DTD SVG 1.1//EN" "http://www.w3.org/Graphics/SVG/1.1/DTD/svg11.dtd">
<svg version="1.1" id="Layer_1" xmlns="http://www.w3.org/2000/svg" xmlns:xlink="http://www.w3.org/1999/xlink" x="0px" y="0px"
	 width="43px" height="38px" viewBox="0 0 43 38" enable-background="new 0 0 43 38" xml:space="preserve">
<g>
	<path fill="#888888" d="M33.367,28.18h-6.773c-0.857,0-1.553-0.695-1.553-1.552s0.695-1.551,1.553-1.551h6.771
		c1.043,0,1.891-0.847,1.891-1.89V5.99c0-1.042-0.848-1.888-1.891-1.888H9.633c-1.042,0-1.889,0.847-1.889,1.888v17.199
		c0,1.041,0.847,1.889,1.889,1.889h6.773c0.856,0,1.551,0.693,1.551,1.551s-0.695,1.551-1.551,1.551H9.633
		c-2.752,0-4.99-2.238-4.99-4.99V5.99C4.643,3.239,6.881,1,9.633,1h23.732c2.752,0,4.992,2.239,4.992,4.99v17.199
		C38.357,25.939,36.119,28.18,33.367,28.18z"/>
	<path fill="#888888" d="M21.5,37c-0.553,0-1.066-0.295-1.343-0.773l-5.094-8.822c-0.428-0.741-0.174-1.69,0.567-2.117
		c0.742-0.432,1.69-0.176,2.118,0.566l3.751,6.494l3.748-6.494c0.431-0.742,1.377-0.996,2.12-0.567
		c0.74,0.427,0.994,1.376,0.566,2.118l-5.09,8.822C22.566,36.705,22.057,37,21.5,37z"/>
	<path fill="#888888" d="M30.959,10.981H12.041c-0.857,0-1.551-0.694-1.551-1.551c0-0.856,0.694-1.55,1.551-1.55h18.918
		c0.855,0,1.551,0.694,1.551,1.55C32.51,10.287,31.814,10.981,30.959,10.981z"/>
	<path fill="#888888" d="M30.959,16.141H12.041c-0.857,0-1.551-0.695-1.551-1.551s0.694-1.551,1.551-1.551h18.918
		c0.855,0,1.551,0.694,1.551,1.551S31.814,16.141,30.959,16.141z"/>
	<path fill="#888888" d="M30.959,21.299H12.041c-0.857,0-1.551-0.695-1.551-1.55c0-0.858,0.694-1.552,1.551-1.552h18.918
		c0.855,0,1.551,0.694,1.551,1.552C32.51,20.604,31.814,21.299,30.959,21.299z"/>
</g>
</svg>
