<?xml version="1.0" encoding="utf-8"?>
<!-- Generator: Adobe Illustrator 15.0.0, SVG Export Plug-In . SVG Version: 6.00 Build 0)  -->
<!DOCTYPE svg PUBLIC "-//W3C//DTD SVG 1.1//EN" "http://www.w3.org/Graphics/SVG/1.1/DTD/svg11.dtd">
<svg version="1.1" id="Layer_1" xmlns="http://www.w3.org/2000/svg" xmlns:xlink="http://www.w3.org/1999/xlink" x="0px" y="0px"
	 width="43px" height="38px" viewBox="0 0 43 38" enable-background="new 0 0 43 38" xml:space="preserve">
<g>
	<polygon fill="#888888" points="15.796,18.458 18.294,18.458 17.044,15.72 	"/>
	<path fill="#888888" d="M21.499,0.443C10.453,0.443,1.5,7.575,1.5,16.372c0,5.593,3.62,10.511,9.095,13.353l-1.512,7.832
		l8.649-5.541c1.221,0.186,2.479,0.287,3.767,0.287C32.545,32.301,41.5,25.17,41.5,16.372C41.5,7.575,32.545,0.443,21.499,0.443z
		 M11.36,21.084c0,0.223-0.09,0.438-0.248,0.598c-0.156,0.156-0.374,0.246-0.595,0.246h-0.188c-0.221,0-0.438-0.09-0.596-0.248
		c-0.157-0.156-0.247-0.373-0.247-0.596v-6.962h-2.05c-0.168,0-0.331-0.047-0.471-0.133c-0.136-0.085-0.241-0.203-0.306-0.342
		c-0.042-0.093-0.066-0.195-0.066-0.298c0-0.103,0.024-0.206,0.067-0.301c0.042-0.09,0.103-0.172,0.181-0.243
		c0.158-0.147,0.37-0.229,0.595-0.229h5.951c0.168,0,0.331,0.046,0.47,0.133c0.137,0.084,0.243,0.202,0.308,0.341
		c0.042,0.094,0.065,0.197,0.065,0.299c0,0.102-0.023,0.205-0.065,0.298c-0.044,0.093-0.105,0.176-0.181,0.246
		c-0.161,0.146-0.372,0.229-0.597,0.229H11.36V21.084z M21.329,21.516c-0.089,0.141-0.212,0.25-0.362,0.318l-0.175,0.076
		c-0.251,0.115-0.558,0.098-0.797-0.055c-0.14-0.088-0.249-0.211-0.317-0.361l-0.69-1.514H15.1l-0.686,1.506
		c-0.068,0.148-0.177,0.273-0.317,0.361c-0.239,0.15-0.547,0.17-0.799,0.055l-0.173-0.08c-0.149-0.064-0.274-0.176-0.361-0.314
		c-0.086-0.139-0.131-0.293-0.131-0.453c0-0.121,0.025-0.238,0.075-0.346l3.382-7.413l0.024-0.07
		c0.021-0.086,0.057-0.166,0.104-0.241c0.015-0.021,0.03-0.044,0.066-0.092c0.065-0.103,0.154-0.191,0.258-0.256
		c0.136-0.085,0.293-0.131,0.452-0.131c0.034,0,0.067,0.003,0.139,0.01c0.148,0.007,0.292,0.051,0.418,0.13
		c0.071,0.045,0.137,0.101,0.213,0.189c0.043,0.045,0.081,0.092,0.112,0.143c0.051,0.081,0.088,0.17,0.11,0.267l3.586,7.886
		L21.329,21.516z M28.502,21.498c-0.042,0.076-0.096,0.146-0.16,0.203c-0.16,0.146-0.371,0.227-0.596,0.227h-4.908
		c-0.029,0-0.061-0.002-0.089-0.004c-0.138-0.016-0.271-0.059-0.384-0.127c-0.119-0.074-0.219-0.176-0.283-0.295l-0.085-0.139
		v-7.944c0-0.221,0.091-0.438,0.248-0.595c0.155-0.157,0.372-0.247,0.595-0.247h0.191c0.22,0,0.437,0.09,0.593,0.248
		c0.157,0.155,0.247,0.373,0.247,0.594v6.985h3.875c0.168,0,0.331,0.045,0.47,0.129c0.069,0.045,0.132,0.098,0.185,0.154
		l0.336,0.375L28.502,21.498z M36.359,21.35c-0.059,0.121-0.146,0.227-0.256,0.305l-0.151,0.113
		c-0.245,0.18-0.597,0.209-0.872,0.074c-0.12-0.061-0.227-0.148-0.307-0.258l-2.644-3.611l-1.112,1.158v1.953
		c0,0.221-0.09,0.438-0.248,0.596c-0.156,0.158-0.373,0.246-0.595,0.246h-0.188c-0.223,0-0.438-0.088-0.596-0.246
		c-0.056-0.057-0.103-0.119-0.143-0.189l-0.105-0.189v-7.883c0-0.221,0.09-0.438,0.248-0.595c0.156-0.157,0.373-0.247,0.596-0.247
		h0.191c0.221,0,0.436,0.09,0.594,0.248c0.156,0.155,0.246,0.373,0.246,0.594v3.005l3.445-3.593
		c0.079-0.082,0.176-0.148,0.282-0.192c0.298-0.124,0.668-0.061,0.907,0.168l0.139,0.132c0.084,0.081,0.148,0.176,0.193,0.282
		c0.041,0.103,0.063,0.213,0.063,0.327c0.002,0.218-0.083,0.425-0.232,0.582l-2.369,2.47l2.843,3.879
		c0.104,0.143,0.162,0.316,0.16,0.496C36.448,21.104,36.418,21.234,36.359,21.35z"/>
</g>
<g>
	<path fill="none" d="M353.213,3005.638h-23.417c-1.862,0-3.372,1.511-3.372,3.372v30.286c0,1.861,1.51,3.372,3.372,3.372h23.417
		c1.862,0,3.372-1.511,3.372-3.372v-30.286C356.585,3007.148,355.075,3005.638,353.213,3005.638z M340.31,3038.188h-7.765v-7.765
		h7.765V3038.188z M340.31,3028.632h-7.765v-7.765h7.765V3028.632z M350.463,3038.188h-7.765v-7.765h7.765V3038.188z
		 M350.463,3028.632h-7.765v-7.765h7.765V3028.632z M353.15,3017.506h-23.293v-7.765h23.293V3017.506z M338.856,3033.62h-4.778
		v1.792h4.778V3033.62z M345.427,3027.178l1.056-1.055l1.056,1.055l1.268-1.267l-1.057-1.056l1.057-1.056l-1.268-1.268l-1.056,1.056
		l-1.056-1.056l-1.268,1.268l1.057,1.056l-1.057,1.056L345.427,3027.178z M335.66,3027.35h1.791v-1.494h1.494v-1.792h-1.494v-1.492
		h-1.791v1.492h-1.493v1.792h1.493V3027.35z M348.997,3033.003h-4.777v1.792h4.777V3033.003z M346.608,3032.384
		c0.437,0,0.79-0.354,0.79-0.79s-0.354-0.789-0.79-0.789c-0.436,0-0.789,0.354-0.789,0.789S346.173,3032.384,346.608,3032.384z
		 M346.608,3035.413c-0.436,0-0.789,0.354-0.789,0.789c0,0.437,0.354,0.79,0.789,0.79c0.437,0,0.79-0.354,0.79-0.79
		C347.398,3035.767,347.045,3035.413,346.608,3035.413z"/>
</g>
</svg>
