<?xml version="1.0" encoding="utf-8"?>
<!-- Generator: Adobe Illustrator 15.0.0, SVG Export Plug-In . SVG Version: 6.00 Build 0)  -->
<!DOCTYPE svg PUBLIC "-//W3C//DTD SVG 1.1//EN" "http://www.w3.org/Graphics/SVG/1.1/DTD/svg11.dtd">
<svg version="1.1" id="Layer_1" xmlns="http://www.w3.org/2000/svg" xmlns:xlink="http://www.w3.org/1999/xlink" x="0px" y="0px"
	 width="43px" height="38px" viewBox="0 0 43 38" enable-background="new 0 0 43 38" xml:space="preserve">
<g>
	<g>
		<path fill="#888888" d="M33.209,0.484H9.792c-1.862,0-3.372,1.511-3.372,3.372v30.286c0,1.861,1.51,3.373,3.372,3.373h23.417
			c1.861,0,3.371-1.512,3.371-3.373V3.856C36.58,1.995,35.07,0.484,33.209,0.484z M20.305,33.034h-7.765v-7.764h7.765V33.034z
			 M20.305,23.479h-7.765v-7.764h7.765V23.479z M30.459,33.034h-7.766v-7.764h7.766V33.034z M30.459,23.479h-7.766v-7.764h7.766
			V23.479z M33.146,12.353H9.854V4.588h23.293V12.353z M18.853,28.467h-4.779v1.793h4.778L18.853,28.467L18.853,28.467z
			 M25.422,22.025l1.057-1.055l1.055,1.055l1.268-1.268l-1.057-1.056l1.057-1.056l-1.268-1.268l-1.055,1.056l-1.057-1.056
			l-1.269,1.268l1.058,1.056l-1.058,1.056L25.422,22.025z M15.655,22.196h1.791v-1.494h1.494V18.91h-1.494v-1.492h-1.791v1.492
			h-1.493v1.792h1.493V22.196z M28.992,27.85h-4.777v1.793h4.777V27.85z M26.604,27.23c0.438,0,0.791-0.354,0.791-0.789
			s-0.354-0.789-0.791-0.789c-0.436,0-0.789,0.354-0.789,0.789S26.168,27.23,26.604,27.23z M26.604,30.26
			c-0.436,0-0.789,0.354-0.789,0.789c0,0.438,0.354,0.791,0.789,0.791c0.438,0,0.791-0.354,0.791-0.791S27.041,30.26,26.604,30.26z"
			/>
	</g>
</g>
</svg>
